<svg width="31" height="46" viewBox="0 0 31 46" fill="none" xmlns="http://www.w3.org/2000/svg">
<path d="M0 38.4342C0 35.1053 2.1 32.0789 5.5 31.0702C6.1 30.8684 6.8 30.7675 7.5 30.7675H15.1V38.4342C15.1 39.1404 15 39.8465 14.8 40.4518C13.8 43.8816 10.7 46 7.5 46C5.5 46 3.6 45.193 2.1 43.7807C0.799999 42.3684 0 40.4518 0 38.4342ZM7.7 30.7675H15.2V15.8377H7.7C7 15.8377 6.4 15.9386 5.7 16.1404C2.3 17.1491 0.299999 20.1754 0.299999 23.4035C0.299999 26.6316 2.3 29.6579 5.7 30.6667C6.4 30.6667 7 30.7675 7.7 30.7675ZM7.7 14.9298H15.2V0H7.7C7 0 6.4 0.100865 5.7 0.302619C2.3 1.31139 0.299999 4.33772 0.299999 7.56579C0.299999 10.7939 2.3 13.8202 5.7 14.8289C6.4 14.8289 7 14.9298 7.7 14.9298ZM15.2 14.9298H22.6C23.3 14.9298 24.1 14.8289 24.8 14.6272C28.1 13.6184 30.1 10.5921 30.1 7.46491C30.1 4.23684 28.1 1.31139 24.8 0.302619C24.1 0.100865 23.4 0 22.6 0H15.2V14.9298ZM22.6 15.4342C21.1 15.4342 19.6 15.8377 18.4 16.7456C17.2 17.6535 16.2 18.7632 15.6 20.1754C15 21.5877 14.9 23.1009 15.2 24.614C15.5 26.1272 16.2 27.4386 17.3 28.5482C18.4 29.6579 19.7 30.364 21.2 30.6667C22.7 30.9693 24.2 30.7675 25.6 30.2632C27 29.6579 28.2 28.75 29 27.4386C29.8 26.1272 30.3 24.7149 30.3 23.2018C30.3 21.1842 29.5 19.2675 28.1 17.7544C26.5 16.2412 24.6 15.4342 22.6 15.4342Z" fill="white"/>
</svg>
