<svg width="46" height="46" viewBox="0 0 46 46" fill="none" xmlns="http://www.w3.org/2000/svg">
<path d="M0 0V46H46V0H0ZM24.7615 35.9344C24.7615 40.3632 22.0438 42.3764 18.1182 42.3764C14.5952 42.3764 12.4814 40.5645 11.4748 38.4508L15.0985 36.337C15.8031 37.5449 16.407 38.5514 17.9168 38.5514C19.326 38.5514 20.3326 38.0481 20.3326 35.8337V21.2385H24.7615V35.9344ZM34.9278 42.0744C30.9015 42.0744 28.2845 40.1619 27.0766 37.6455L30.5996 35.6324C31.5055 37.1422 32.7134 38.2495 34.8271 38.2495C36.639 38.2495 37.7462 37.3435 37.7462 36.1357C37.7462 34.6258 36.5383 34.1225 34.6258 33.3173L33.5186 32.814C30.3982 31.5055 28.2845 29.7943 28.2845 26.372C28.2845 23.151 30.8009 20.7352 34.6258 20.7352C37.3435 20.7352 39.3567 21.6411 40.7659 24.1576L37.4442 26.2713C36.7396 24.9628 35.9343 24.4595 34.6258 24.4595C33.3173 24.4595 32.512 25.2648 32.512 26.2713C32.512 27.5799 33.3173 28.0831 35.1291 28.8884L36.2363 29.3917C39.9606 31.0022 41.9737 32.512 41.9737 36.1357C42.0744 39.9606 39.0547 42.0744 34.9278 42.0744Z" fill="white"/>
</svg>
