<svg width="46" height="46" viewBox="0 0 46 46" fill="none" xmlns="http://www.w3.org/2000/svg">
<g clip-path="url(#clip0_305_195)">
<path d="M23.3499 18.418C20.8231 18.418 18.7679 20.4735 18.7679 23C18.7679 25.5265 20.8234 27.582 23.3499 27.582C25.8764 27.582 27.9319 25.5265 27.9319 23C27.9319 20.4735 25.8764 18.418 23.3499 18.418Z" fill="white"/>
<path d="M7.81641 28.6338C7.81641 27.0485 6.52666 25.7588 4.94141 25.7588C3.35616 25.7588 2.06641 27.0485 2.06641 28.6338C2.06641 30.219 3.35616 31.5088 4.94141 31.5088C6.52666 31.5088 7.81641 30.219 7.81641 28.6338Z" fill="white"/>
<path d="M39.4411 23C39.899 22.495 40.3293 21.9886 40.7273 21.4825C43.8164 17.5571 44.7187 14.0118 43.2685 11.5C41.8188 8.98824 38.2973 7.99715 33.3531 8.70958C30.2861 9.15143 26.8503 10.2131 23.352 11.7751C21.5081 10.9515 19.6817 10.2678 17.9175 9.74033C18.093 9.20512 18.2797 8.68852 18.478 8.19298C19.5589 5.491 20.9132 3.64394 22.2553 2.97432C22.5234 1.82004 23.1513 0.802277 24.0142 0.0459748C23.7942 0.0157928 23.5724 0 23.3495 0C20.4493 0 17.8305 2.55423 15.9753 7.19206C15.7363 7.79008 15.5128 8.41583 15.3043 9.06509C14.6379 8.92085 13.984 8.80153 13.3467 8.70958C8.4032 7.9975 4.88174 8.98824 3.43161 11.5C1.98147 14.0118 2.88377 17.5571 5.9725 21.4825C7.88905 23.9181 10.5251 26.3635 13.6275 28.6124C13.8366 30.6206 14.1574 32.5434 14.5828 34.3344C14.0314 34.4502 13.4906 34.5467 12.9624 34.6228C10.0857 35.0373 7.81114 34.7888 6.55929 33.9637C6.04725 34.1196 5.50398 34.2045 4.9414 34.2045C4.31109 34.2045 3.7057 34.0975 3.14032 33.9037C3.2242 34.1087 3.32071 34.3077 3.43161 34.5C4.57501 36.4808 7.0057 37.5157 10.4071 37.5157C11.3193 37.5157 12.3016 37.441 13.3471 37.2904C13.9844 37.1985 14.6382 37.0791 15.3047 36.9349C15.5128 37.5842 15.7363 38.2103 15.9757 38.8079C17.8305 43.4458 20.4496 46 23.3495 46C26.2498 46 28.869 43.4458 30.7241 38.8079C31.8749 35.9301 32.6754 32.4245 33.072 28.6131C34.7064 27.4283 36.2112 26.1891 37.5494 24.9253C37.9256 25.3451 38.2794 25.7652 38.6093 26.1842C40.4125 28.4759 41.3344 30.5764 41.239 32.0742C42.0721 32.8568 42.6649 33.8914 42.8941 35.0559C43.0309 34.8794 43.1566 34.6944 43.2685 34.5C44.719 31.9882 43.8164 28.4433 40.7276 24.5175C40.3293 24.0114 39.899 23.505 39.4411 23ZM33.7377 11.3775C37.4073 10.8486 40.0977 11.3982 40.9344 12.8477C41.7714 14.2971 40.9021 16.9019 38.6093 19.8158C38.2794 20.2348 37.9256 20.6553 37.5494 21.0747C35.0022 18.6696 31.8531 16.3523 28.3541 14.3325C27.7624 13.9911 27.1683 13.6629 26.5734 13.3474C29.0918 12.3711 31.525 11.6962 33.7377 11.3775ZM8.09085 19.8158C5.79808 16.9022 4.92912 14.2971 5.76614 12.8477C6.60281 11.3982 9.29286 10.8486 12.9628 11.3775C13.4909 11.4533 14.0318 11.5498 14.5831 11.6656C13.7735 15.0741 13.3411 18.9598 13.3411 23C13.3411 23.683 13.3541 24.3613 13.3786 25.0341C11.274 23.3418 9.4729 21.5723 8.09085 19.8158ZM16.0364 23C16.0364 19.1788 16.4389 15.5223 17.1921 12.3349C20.3293 13.2762 23.6973 14.7561 27.0065 16.6667C30.3159 18.577 33.2815 20.7536 35.6655 23C33.2815 25.2461 30.3159 27.423 27.0065 29.3333C23.6973 31.2439 20.3293 32.7238 17.1921 33.6651C16.4386 30.4777 16.0364 26.8212 16.0364 23ZM28.2215 37.807C26.8443 41.2495 25.0232 43.3047 23.3495 43.3047C21.6762 43.3047 19.8548 41.2495 18.478 37.807C18.2797 37.3115 18.093 36.7949 17.9175 36.2597C21.274 35.2563 24.8551 33.6875 28.3538 31.6675C28.9458 31.326 29.527 30.9754 30.0977 30.6178C29.6842 33.2868 29.0518 35.7311 28.2215 37.807Z" fill="white"/>
<path d="M37.4291 33.2568C35.8435 33.2568 34.5541 34.5466 34.5541 36.1318C34.5541 37.7171 35.8435 39.0068 37.4291 39.0068C39.0143 39.0068 40.3041 37.7171 40.3041 36.1318C40.3041 34.5466 39.014 33.2568 37.4291 33.2568Z" fill="white"/>
<path d="M27.6803 7.10962C29.2655 7.10962 30.5553 5.81987 30.5553 4.23462C30.5553 2.64937 29.2655 1.35962 27.6803 1.35962C26.095 1.35962 24.8053 2.64937 24.8053 4.23462C24.8053 5.81987 26.095 7.10962 27.6803 7.10962Z" fill="white"/>
</g>
<defs>
<clipPath id="clip0_305_195">
<rect width="46" height="46" fill="white"/>
</clipPath>
</defs>
</svg>
