<svg width="46" height="35" viewBox="0 0 46 35" fill="none" xmlns="http://www.w3.org/2000/svg">
<path d="M39.5196 19.6207C37.9376 19.6207 36.5063 19.9973 35.3763 20.6C34.9243 19.7714 34.5476 19.018 34.4723 18.4153C34.3969 17.7373 34.3216 17.3607 34.397 16.6074C34.4723 15.854 34.9243 14.724 34.9243 14.6487C34.9243 14.5734 34.8489 14.1967 33.8696 14.1967C32.9656 14.1967 32.137 14.3474 32.0616 14.6487C31.9863 14.8747 31.7603 15.4774 31.685 16.0047C31.5343 16.8334 29.8016 19.8467 28.8976 21.4287C28.5963 20.826 28.295 20.2987 28.295 19.8467C28.2197 19.1687 28.1443 18.792 28.2196 18.0387C28.295 17.2853 28.747 16.1554 28.747 16.08C28.747 16.0047 28.6716 15.628 27.6923 15.628C26.7883 15.628 25.9597 15.7787 25.8843 16.08C25.809 16.306 25.6583 16.9087 25.5077 17.436C25.2817 17.9633 23.097 23.0107 22.4943 24.2913C22.193 24.9693 21.967 25.4967 21.741 25.8733C21.741 25.8733 21.741 25.8733 21.741 25.9487C21.5903 26.25 21.515 26.4007 21.515 26.4007C21.3643 26.6267 21.289 26.8527 21.2137 26.8527C21.1383 26.8527 21.063 26.25 21.2137 25.4213C21.515 23.6887 22.3437 20.9767 22.3437 20.9013C22.3437 20.826 22.4943 20.374 21.8163 20.148C21.1383 19.922 20.9123 20.2987 20.837 20.2987C20.7617 20.2987 20.7617 20.4493 20.7617 20.4493C20.7617 20.4493 21.515 17.436 19.4056 17.436C18.0496 17.436 16.2417 18.8674 15.3377 20.2233C14.735 20.5247 13.5297 21.2027 12.249 21.8807C11.7217 22.182 11.2697 22.408 10.7423 22.7093L10.667 22.634C8.10568 19.922 3.35969 17.9633 3.51036 14.272C3.58569 12.916 4.03767 9.37537 12.6257 5.08138C19.707 1.54072 25.2817 2.52005 26.261 4.70471C27.617 7.79337 23.2476 13.4434 15.9403 14.272C13.153 14.5734 11.7217 13.5187 11.345 13.0667C10.9684 12.6147 10.893 12.6147 10.7423 12.69C10.5163 12.8407 10.667 13.2174 10.7423 13.4434C10.9683 14.046 11.8723 15.0254 13.379 15.5527C14.735 16.0047 17.9743 16.2307 21.967 14.724C26.4116 12.9914 29.877 8.24537 28.8223 4.25271C27.7676 0.184716 21.063 -1.17128 14.735 1.08872C10.9684 2.44471 6.82502 4.55404 3.88702 7.26603C0.346364 10.5807 -0.180972 13.368 0.0450271 14.5734C0.873692 18.792 6.67434 21.5793 9.00967 23.6133C8.859 23.6887 8.7837 23.764 8.70836 23.764C7.50303 24.3667 3.05836 26.702 2.00369 29.1127C0.72303 31.9 2.2297 33.934 3.20903 34.16C6.22236 34.9887 9.31103 33.482 10.9684 30.996C12.6257 28.51 12.3997 25.346 11.6463 23.8393C11.6463 23.8393 11.6463 23.8393 11.6463 23.764C11.9477 23.6133 12.249 23.3873 12.5503 23.2367C13.153 22.86 13.7557 22.5587 14.2077 22.2573C13.9063 23.0107 13.6804 23.99 13.605 25.346C13.4544 26.928 14.1323 28.962 14.961 29.7907C15.3377 30.1673 15.7897 30.1673 16.091 30.1673C17.0703 30.1673 17.5223 29.3387 18.0497 28.3593C18.6523 27.154 19.1796 25.798 19.1796 25.798C19.1796 25.798 18.5017 29.5647 20.385 29.5647C21.063 29.5647 21.741 28.6607 22.0423 28.2087C22.0423 28.2087 22.0423 28.2087 22.1177 28.1333C22.193 28.058 22.193 27.9827 22.193 27.9827C22.4943 27.5307 23.097 26.476 24.001 24.668C25.131 22.408 26.261 19.5453 26.261 19.5453C26.261 19.5453 26.3363 20.2233 26.713 21.4287C26.939 22.1067 27.3156 22.86 27.6923 23.6133C27.391 23.99 27.2403 24.216 27.2403 24.216C27.0143 24.5173 26.7883 24.8187 26.5623 25.12C25.6583 26.25 24.5283 27.4553 24.3777 27.832C24.227 28.284 24.227 28.5853 24.6036 28.8113C24.8296 28.962 25.2816 29.0373 25.7336 28.962C26.5623 28.8867 27.165 28.736 27.391 28.5853C27.843 28.4347 28.3703 28.2087 28.8223 27.832C29.7263 27.154 30.2537 26.25 30.1783 24.9693C30.1783 24.2913 29.9523 23.6133 29.651 22.9353C29.7263 22.7847 29.8016 22.7093 29.877 22.5587C31.3083 20.4493 32.363 18.1893 32.363 18.1893C32.363 18.1893 32.4383 18.8673 32.815 20.0727C32.9656 20.6753 33.3423 21.278 33.6436 21.956C32.2876 23.0107 31.459 24.2913 31.1576 25.12C30.6303 26.6267 31.0069 27.38 31.8356 27.5307C32.2123 27.606 32.6643 27.4553 33.041 27.3047C33.493 27.154 34.0956 26.928 34.623 26.476C35.5269 25.798 36.3556 24.894 36.3556 23.6133C36.3556 23.0107 36.2049 22.4833 35.9789 21.956C37.1089 21.504 38.5403 21.2027 40.4236 21.4287C44.4163 21.8807 45.2449 24.3667 45.0943 25.4213C44.9436 26.476 44.1149 27.0787 43.8136 27.2293C43.5123 27.38 43.4369 27.4553 43.4369 27.606C43.4369 27.7567 43.5876 27.7567 43.8136 27.7567C44.1149 27.6813 45.923 26.928 45.9983 24.9693C46.0736 22.2573 43.6629 19.5453 39.5196 19.6207ZM8.633 30.9207C7.27701 32.352 5.46902 32.8793 4.64036 32.4273C3.81169 31.9 4.11302 29.7907 5.77035 28.284C6.74968 27.38 8.03033 26.476 8.85899 25.9487C9.08499 25.798 9.31102 25.6473 9.68769 25.4213C9.76302 25.4213 9.763 25.346 9.763 25.346C9.83834 25.2707 9.91366 25.2707 9.98899 25.1953C10.5917 27.4553 10.0643 29.414 8.633 30.9207ZM18.351 24.3667C17.899 25.4967 16.9197 28.3593 16.317 28.2087C15.7897 28.058 15.4883 25.8733 16.2417 23.764C16.6183 22.7093 17.3717 21.3533 17.8237 20.9013C18.577 20.0727 19.3303 19.8467 19.5563 20.148C19.707 20.5247 18.577 23.6133 18.351 24.3667ZM26.3363 28.1333C26.1103 28.2087 25.9597 28.284 25.8843 28.284C25.809 28.284 25.9596 28.1333 25.9596 28.1333C25.9596 28.1333 26.939 27.0787 27.3156 26.5513C27.5416 26.25 27.843 25.9487 28.069 25.572C28.069 25.6473 28.069 25.6473 28.069 25.6473C28.069 26.928 26.8636 27.832 26.3363 28.1333ZM32.4383 26.7773C32.2876 26.702 32.2877 26.3253 32.815 25.2707C32.9656 24.894 33.4176 24.1407 34.171 23.538C34.2463 23.8393 34.3216 24.0653 34.3216 24.2913C34.3216 25.8733 33.1163 26.476 32.4383 26.7773Z" fill="white"/>
</svg>
