<?xml version="1.0" encoding="utf-8"?>
<!-- Generator: Adobe Illustrator 24.0.2, SVG Export Plug-In . SVG Version: 6.00 Build 0)  -->
<svg version="1.1"
	xmlns="http://www.w3.org/2000/svg"
	xmlns:xlink="http://www.w3.org/1999/xlink" x="0px" y="0px" viewBox="0 0 500 500" style="enable-background:new 0 0 500 500;" xml:space="preserve">
	<style type="text/css">
	.st0{display:none;}
	.st1{display:inline;fill:#020203;}
	.st2{display:inline;fill:#E84344;}
	.st3{display:inline;fill:none;stroke:#FFFFFF;stroke-width:11;stroke-miterlimit:10;}
	.st4{display:inline;}
	.st5{display:inline;opacity:0.19;fill:#EB585A;}
	.st6{fill:#010202;}
	</style>
	<g id="Capa_1" class="st0">
		<path id="b" class="st1" d="M128.8,172.5l-42.3,42.3c-3.7,3.7-3.7,9.7,0,13.4l97.9,97.9c3.7,3.7,9.7,3.7,13.4,0l42.3-42.3
		c3.7-3.7,3.7-9.7,0-13.4l-49-49l-49-49C138.5,168.8,132.5,168.8,128.8,172.5z"/>
		<path id="p1" class="st1" d="M254.1,283.8l42.3,42.3c3.7,3.7,9.7,3.7,13.4,0l42.3-42.3c3.7-3.7,3.7-9.7,0-13.4l-42.3-42.3
		c-3.7-3.7-9.7-3.7-13.4,0l-42.3,42.3C250.5,274.1,250.5,280.1,254.1,283.8z"/>
		<path id="p2" class="st1" d="M296.4,116.9l-42.3,42.3c-3.7,3.7-3.7,9.7,0,13.4l42.3,42.3c3.7,3.7,9.7,3.7,13.4,0l42.3-42.3
		c3.7-3.7,3.7-9.7,0-13.4l-42.3-42.3C306.1,113.2,300.1,113.2,296.4,116.9z"/>
	</g>
	<g id="Capa_3" class="st0">
		<circle class="st2" cx="235.5" cy="210.8" r="72.4"/>
	</g>
	<g id="Capa_2" class="st0">
		<path class="st3" d="M192.3,269.5l65.5-67.1l5.1,5.1c13.2,13.2,13.4,34.5,0.4,47.5c-12.3,12.3-32,12.8-45.3,1.6
		c-1.8-1.5-3.3-3.4-4.5-5.4c-3.9-6.7-9.9-22.2,5.9-38.6l59.2-60.4"/>
	</g>
	<g id="Capa_4" class="st0">
		<g class="st4">
			<path d="M218.3,220.2l58.8-60.1c-12-8.8-26.8-14-42.8-14c-40,0-72.4,32.4-72.4,72.4c0,23.9,11.6,45.1,29.5,58.3l18-24.5
			C206.9,244.3,206.5,232.5,218.3,220.2z"/>
			<path d="M277.2,160.2l-67.8,92.1c0.5,1.6,1.1,3.1,1.8,4.3l45.4-46.6l5.1,5.1c13.2,13.2,13.4,34.5,0.4,47.5
			c-12.3,12.3-32,12.8-45.3,1.6c-1.8-1.5-3.3-3.4-4.5-5.4c-0.4-0.7-0.8-1.4-1.2-2.2l-19.7,20.2c12,8.8,26.8,14,42.8,14
			c40,0,72.4-32.4,72.4-72.4C306.7,194.6,295.1,173.4,277.2,160.2z"/>
		</g>
		<circle class="st5" cx="234.4" cy="219.5" r="53.5"/>
	</g>
	<g id="Capa_5">
		<g>
			<path class="st6" d="M344.4,106.5c2,1.3,4,2.7,6,4.1C348.4,109.2,346.4,107.8,344.4,106.5z"/>
			<path class="st6" d="M250,425.7c2.7,0,5.3-0.1,8-0.2c-23.2-1.4-46.2-10.1-65.1-26.1c-5.9-5-10.8-11-14.7-17.6
			c-1.3-2.2-2.6-4.6-3.9-7.3L153,396.1C180.7,414.8,214.1,425.7,250,425.7z"/>
			<path class="st6" d="M351.6,111.5L168.5,360.3c1.7,5.3,3.7,10,5.7,14.1l148.4-152.1l16.8,16.8c43.2,43.2,43.8,112.7,1.4,155.1
			c-7.3,7.3-15.5,13.4-24.1,18.1c62.8-26.1,106.9-88,106.9-160.3C423.6,194.2,395.2,143,351.6,111.5z"/>
			<path class="st6" d="M197.4,255.7l146.4-149.5c-27.1-17.4-59.3-27.6-93.9-27.6c-95.9,0-173.6,77.7-173.6,173.6
			c0,56.8,27.3,107.2,69.5,138.9l22.6-30.7C160.1,334.4,158.8,295.9,197.4,255.7z"/>
		</g>
		<polygon class="st6" points="144.7,392.7 109.8,440.4 151.6,397.6 	"/>
		<polygon class="st6" points="343.9,106.2 351.6,111.4 389.8,59.6 	"/>
	</g>
</svg>
