<?xml version="1.0" encoding="utf-8"?>
<!-- Generator: Adobe Illustrator 24.0.2, SVG Export Plug-In . SVG Version: 6.00 Build 0)  -->
<svg version="1.1" id="bp_x5F_logo" xmlns="http://www.w3.org/2000/svg" xmlns:xlink="http://www.w3.org/1999/xlink" x="0px"
	 y="0px" viewBox="0 0 300 300" style="enable-background:new 0 0 300 300;" xml:space="preserve">
<path id="b" d="M60,100.6l-42.3,42.3c-3.7,3.7-3.7,9.7,0,13.4l97.9,97.9c3.7,3.7,9.7,3.7,13.4,0l42.3-42.3c3.7-3.7,3.7-9.7,0-13.4
	l-49-49l-49-49C69.7,97,63.7,97,60,100.6z"/>
<path id="p1" d="M185.3,211.9l42.3,42.3c3.7,3.7,9.7,3.7,13.4,0l42.3-42.3c3.7-3.7,3.7-9.7,0-13.4L241,156.3
	c-3.7-3.7-9.7-3.7-13.4,0l-42.3,42.3C181.6,202.2,181.6,208.2,185.3,211.9z"/>
<path id="p2" d="M227.6,45l-42.3,42.3c-3.7,3.7-3.7,9.7,0,13.4l42.3,42.3c3.7,3.7,9.7,3.7,13.4,0l42.3-42.3c3.7-3.7,3.7-9.7,0-13.4
	L241,45C237.3,41.3,231.3,41.3,227.6,45z"/>
</svg>
